<?xml version="1.0" standalone="no"?>
<!DOCTYPE svg PUBLIC "-//W3C//DTD SVG 20010904//EN"
 "http://www.w3.org/TR/2001/REC-SVG-20010904/DTD/svg10.dtd">
<svg version="1.0" xmlns="http://www.w3.org/2000/svg"
 width="892.000000pt" height="741.000000pt" viewBox="0 0 892.000000 741.000000"
 preserveAspectRatio="xMidYMid meet">

<g transform="translate(0.000000,741.000000) scale(0.100000,-0.100000)"
fill="#000000" stroke="none">
<path d="M2150 6635 l0 -425 3115 0 3115 0 0 425 0 425 -3115 0 -3115 0 0
-425z m6210 0 l0 -405 -3095 0 -3095 0 0 405 0 405 3095 0 3095 0 0 -405z"/>
<path d="M360 2980 l0 -2560 460 0 460 0 0 2560 0 2560 -460 0 -460 0 0 -2560z
m900 0 l0 -2540 -440 0 -440 0 0 2540 0 2540 440 0 440 0 0 -2540z"/>
<path d="M2150 5155 l0 -385 1340 0 1340 0 0 385 0 385 -1340 0 -1340 0 0
-385z m2660 -5 l0 -370 -1320 0 -1320 0 0 370 0 370 1320 0 1320 0 0 -370z"/>
<path d="M5700 5155 l0 -385 1340 0 1340 0 0 385 0 385 -1340 0 -1340 0 0
-385z m2660 -5 l0 -370 -1320 0 -1320 0 0 370 0 370 1320 0 1320 0 0 -370z"/>
<path d="M2150 3705 l0 -385 1340 0 1340 0 0 385 0 385 -1340 0 -1340 0 0
-385z m2660 -5 l0 -370 -1320 0 -1320 0 0 370 0 370 1320 0 1320 0 0 -370z"/>
<path d="M5700 3705 l0 -385 1340 0 1340 0 0 385 0 385 -1340 0 -1340 0 0
-385z m2660 -5 l0 -370 -1320 0 -1320 0 0 370 0 370 1320 0 1320 0 0 -370z"/>
<path d="M2150 2255 l0 -385 1340 0 1340 0 0 385 0 385 -1340 0 -1340 0 0
-385z m2660 -5 l0 -370 -1320 0 -1320 0 0 370 0 370 1320 0 1320 0 0 -370z"/>
<path d="M5700 2255 l0 -385 1340 0 1340 0 0 385 0 385 -1340 0 -1340 0 0
-385z m2660 -5 l0 -370 -1320 0 -1320 0 0 370 0 370 1320 0 1320 0 0 -370z"/>
<path d="M2150 805 l0 -385 1340 0 1340 0 0 385 0 385 -1340 0 -1340 0 0 -385z
m2660 -5 l0 -370 -1320 0 -1320 0 0 370 0 370 1320 0 1320 0 0 -370z"/>
<path d="M5700 805 l0 -385 1340 0 1340 0 0 385 0 385 -1340 0 -1340 0 0 -385z
m2660 -5 l0 -370 -1320 0 -1320 0 0 370 0 370 1320 0 1320 0 0 -370z"/>
</g>
</svg>
